<?xml version="1.0" encoding="utf-8"?>
<!-- Generator: Adobe Illustrator 27.2.0, SVG Export Plug-In . SVG Version: 6.00 Build 0)  -->
<svg version="1.1" id="Layer_1" xmlns="http://www.w3.org/2000/svg" xmlns:xlink="http://www.w3.org/1999/xlink" x="0px" y="0px"
	 viewBox="0 0 432 162" style="enable-background:new 0 0 432 162;" xml:space="preserve">
<style type="text/css">
	.st0{fill:#FFFFFF;}
</style>
<g>
	<g>
		<path class="st0" d="M14.4,144.1c32.7-14.5,65.4-29,97.7-44.5c31.1-15,62.1-30.6,91.3-49c14.7-9.3,29.1-19.8,39.6-33.9
			c0.8-1.1-0.5-2.5-1.7-2.2c-28.6,8.3-55.8,20.3-82.8,32.7c-27.3,12.5-55.1,24.6-80.6,40.5c-11.6,7.2-24,16.2-29,29.4
			c-0.3,0.8,0.5,2,1.4,1.9c12-1.4,24-2.8,35.9-4.2c2.7-0.3,5.6-0.9,8.3-0.4c2.5,0.5,4.8,1.9,7.3,2.5c5,1.2,10.3,1.1,15.4,0.4
			c5.1-0.6,10.1-1.7,15.1-2.7c5.9-1.1,11.8-1.8,17.7-2.2c11.9-0.9,23.8-0.9,35.7-1.1c48.4-0.6,96.8-1,145.2-1.2
			c27.4-0.1,54.8-0.1,82.2-0.1c1.9,0,1.9-3,0-3c-48.7-0.1-97.4,0.1-146,0.5c-24.2,0.2-48.4,0.4-72.6,0.7c-12,0.1-24,0.1-36,0.7
			c-11.2,0.5-22.2,1.9-33.2,4.1c-6.1,1.2-12.3,2.2-18.5,1.7c-5.6-0.5-10.4-3.9-16.2-3.5c-6.7,0.5-13.4,1.5-20.1,2.3
			c-6.8,0.8-13.5,1.6-20.3,2.4c0.5,0.6,1,1.3,1.4,1.9c4.5-11.7,15.5-19.8,25.6-26.4C89.3,83.6,102.1,77,115,70.6
			c13.4-6.6,26.9-12.8,40.5-19c13.2-6,26.4-12.1,39.8-17.6c15.3-6.3,30.8-12.1,46.6-16.7c-0.6-0.7-1.1-1.5-1.7-2.2
			c-9.3,12.5-22,22.1-35,30.5c-14.1,9.2-28.8,17.3-43.6,25.3c-30.8,16.6-62.4,31.6-94.2,46.1c-18.2,8.3-36.5,16.4-54.7,24.5
			C11.2,142.3,12.7,144.9,14.4,144.1L14.4,144.1z"/>
	</g>
</g>
</svg>
