<?xml version="1.0" encoding="utf-8"?>
<!-- Generator: Adobe Illustrator 27.1.1, SVG Export Plug-In . SVG Version: 6.00 Build 0)  -->
<svg version="1.1" id="Layer_1" xmlns="http://www.w3.org/2000/svg" xmlns:xlink="http://www.w3.org/1999/xlink" x="0px" y="0px"
	 viewBox="0 0 432 162" style="enable-background:new 0 0 432 162;" xml:space="preserve">
<style type="text/css">
	.st0{fill:#FFFFFF;}
</style>
<g>
	<g>
		<path class="st0" d="M32.1,128.6c6.4-8.6,15.9-14,25.2-19c11-5.9,22.1-11.8,33.1-17.7c22.6-12,45.1-24.1,67.7-36.1
			c12.7-6.8,25.4-13.5,38.1-20.3c1.7-0.9,0.2-3.4-1.5-2.6c-32.1,14.2-62.8,31.5-91.5,51.7c-8,5.6-15.9,11.5-23.6,17.6
			c-1,0.8-0.2,2.7,1.1,2.6c10.6-0.9,21.1-1.7,31.7-2.6c10.5-0.9,21.1-2.1,31.6-2.3c10.3-0.2,20,2.7,30.1,4.1s20.4,1.8,30.6,1.9
			c20.9,0.1,41.8-0.5,62.7-0.8c21-0.3,42-0.6,63.1-0.9c23.6-0.3,47.2-0.7,70.8-1c1.9,0,1.9-3,0-3c-42,0.6-84.1,1.2-126.1,1.8
			c-20.9,0.3-41.9,0.7-62.8,0.9c-10.2,0.1-20.5-0.1-30.6-1c-5.2-0.5-10.4-1.2-15.6-2.3c-4.9-1-9.8-2.1-14.7-2.5
			c-5.8-0.5-11.7-0.1-17.5,0.4c-5.9,0.5-11.8,1-17.7,1.4c-11.8,1-23.6,1.9-35.4,2.9c0.4,0.9,0.7,1.7,1.1,2.6
			c27.4-21.5,56.9-40.4,88-56.2c8.7-4.4,17.6-8.6,26.6-12.6c-0.5-0.9-1-1.7-1.5-2.6c-22.9,12.2-45.8,24.4-68.6,36.6
			c-23.2,12.1-46,24.2-68.7,36.4c-10.4,5.6-21,11.4-28.2,21.1C28.4,128.6,31,130.1,32.1,128.6L32.1,128.6z"/>
	</g>
</g>
</svg>
