<?xml version="1.0" encoding="utf-8"?>
<!-- Generator: Adobe Illustrator 26.0.3, SVG Export Plug-In . SVG Version: 6.00 Build 0)  -->
<svg version="1.1" id="Layer_1" xmlns="http://www.w3.org/2000/svg" xmlns:xlink="http://www.w3.org/1999/xlink" x="0px" y="0px"
	 viewBox="0 0 1366 284" style="enable-background:new 0 0 1366 284;" xml:space="preserve">
<style type="text/css">
	.st0{fill:#FFFFFF;}
</style>
<g>
	<path class="st0" d="M160.3,83.8c0,3,3.6,4.5,10.7,4.5s18.7-1.1,34.5-3.4c15.8-2.2,26.1-3.4,30.7-3.4c7.2,0,10.9,2.1,10.9,6.1
		c0,6.6-12.2,15.2-36.6,26c-10.1,4.5-20.3,9.2-30.5,14.1c-10.2,4.9-18.9,10.5-26,16.7c-7.1,6.2-10.6,12.4-10.6,18.7
		c0,5.2,5.8,7.8,17.4,7.8c6.4,0,16.1-1,29.2-3s24.2-3,33.7-3c16.8,0,25.2,4.6,25.2,13.9c0,1.1-0.6,1.6-1.8,1.6
		c-0.7,0-2.2-0.6-4.5-1.8c-7.2-3.7-15.1-5.5-23.7-5.5c-4.5,0.3-14.9,1.3-31.3,3.2s-26.7,2.8-31.1,2.8c-16.4,0-24.6-4.4-24.6-13.1
		c0-6.1,3.6-12.6,10.7-19.2c7.2-6.7,15.9-12.7,26.1-18.1s20.4-10.5,30.6-15.2c10.2-4.8,18.8-9.1,26-12.9s10.7-6.8,10.7-8.8
		c0-1.1-1.2-1.6-3.7-1.6c-31.6,4.2-54.5,6.3-68.6,6.3c-11.3,0-17-2.5-17-7.6c0-5.7,6.9-13.3,20.7-22.8c13.8-9.5,30.7-17.9,50.8-25.3
		c-33.3-0.3-61.5-1.7-84.5-4.3c-1.2-0.4-1.8-1.2-1.8-2.5c0-1.8,1.5-2.7,4.5-2.7c0.8,0,6.2,0.3,16.2,1c28.1,2.2,47.2,3.3,57.3,3.3
		s18.1-0.1,24.1-0.4c23.9-7.5,44.1-11.3,60.8-11.3c6,0,9,1.2,9,3.5c0,8.3-24.6,12.8-73.9,13.3c-18.4,6.4-34.6,14-48.5,22.8
		C167.3,72.4,160.3,79.1,160.3,83.8z"/>
	<path class="st0" d="M346.1,141.3c-28.4,22.9-45.6,34.4-51.6,34.4c-2.3,0-3.5-1.4-3.5-4.1s1-7.3,3.1-13.7c0-0.1-0.1-0.2-0.4-0.2
		c-15.7,13-26.1,19.4-31.3,19.4c-3.5,0-5.3-1.3-5.3-3.9c0-5.7,6.2-14.1,18.5-25.2c12.4-11.1,22.2-16.6,29.6-16.6c1,0,2,0.7,3.1,2.1
		c3.1-4.6,20.7-29.8,52.8-75.5c3.4-4.2,6.2-6.3,8.3-6.3c2.1,0,3.2,0.7,3.2,2c0,3.4-11.7,19.5-35.2,48.3c-8.7,10.9-16.8,22.3-24,34.1
		c-7.3,11.8-11,20.8-11,26.9c0,2.6,0.8,3.9,2.2,3.9c1.8,0,4.9-1.6,9.4-4.7c9.3-6.7,17.4-12.8,24.4-18.4l3.9-3.3c1-0.7,1.8-1,2.7-1
		s1.2,0.5,1.2,1.4L346.1,141.3L346.1,141.3z M300.5,145.2l6.5-10c-0.4-0.1-0.8-0.2-1.2-0.2c-5.7,0-13.2,4.4-22.5,13.1
		c-9.3,8.7-13.9,14.9-13.9,18.4c0,1,0.5,1.4,1.6,1.4c3.4,0,8.6-2.9,15.5-8.7C293.6,153.4,298.2,148.7,300.5,145.2z"/>
	<path class="st0" d="M391.6,147.4l-1.2-6.6c0-1.1,0.3-2.1,0.8-2.9c0.5-0.8,1.4-1.2,2.7-1.2s2.2,0.9,3,2.8s1.1,3.7,1.1,5.6
		c0,7-3.8,14.1-11.5,21.5c-7.6,7.4-15.5,11.1-23.7,11.1c-1.9,0-3.4-0.6-4.5-1.7s-1.6-2.7-1.6-4.5s0.9-4.5,2.8-8.1s2.8-5.7,2.8-6.6
		s-0.2-1.2-0.6-1.2s-0.8,0.1-1,0.4c-13.6,11.5-23.7,17.2-30.1,17.2c-3.8,0-5.7-1.6-5.7-4.9c0-5.2,3.9-12.4,11.6-21.8
		c7.7-9.3,13.2-14,16.5-14c2,0,3.1,0.4,3.1,1.1s-1.3,2.4-3.8,4.8c-2.5,2.5-6.3,6.9-11.5,13.2s-7.7,10.9-7.7,13.8
		c0,1.8,1.4,2.7,4.1,2.7s8.7-3.7,18-11.1s16.8-14.2,22.5-20.4c2.2-2.2,4.1-3.3,5.6-3.3s2.4,0.5,2.4,1.5s-0.3,2-0.9,3
		c-0.6,1-2.7,3.5-6.2,7.6c-8.9,10.8-13.3,19.2-13.3,25.4c0,1.6,0.6,2.5,1.8,2.5c5,0,10.4-2.7,16.2-8.1
		C388.7,159.7,391.6,153.8,391.6,147.4z"/>
	<path class="st0" d="M439.9,149.9c-0.8,0-1.2-0.3-1.2-0.9s0.5-1.3,1.4-2.1c4.5-3.7,6.8-7,6.8-10c0-1.9-1.7-3-5.1-3.3
		c-6.1,0.1-13.5,4.6-22,13.3c-8.5,8.7-12.8,15.3-12.8,19.6c0,1.5,0.9,2.2,2.6,2.2c1.7,0,4-1.2,6.9-3.5c2.6-1.6,7.4-5.7,14.5-12.3
		c1.6-1.6,3.2-2.5,4.7-2.5c1.9,0,2.9,0.9,2.9,2.7c0,0.7-0.2,1.2-0.6,1.6c-0.4,0.4-1.2,1.3-2.2,2.6s-2,2.5-2.9,3.6
		c-2.5,3.6-3.7,5.9-3.7,7c0,2.7,1.1,4.1,3.3,4.1c2.9,0,8.2-2.6,16.2-7.9c7.9-5.2,15.1-10.5,21.7-15.9l9.8-7.8c1-0.7,1.8-1,2.7-1
		s1.2,0.5,1.2,1.4v0.4c-10.5,8.9-21.6,17.2-33.3,25s-19.3,11.7-23,11.7c-4.4,0-6.5-2.3-6.5-7c0-1.1,0.2-2.1,0.6-3.1
		c0.4-0.9,0.6-1.6,0.6-2.1s-0.1-0.7-0.4-0.8c-0.4,0-3,1.8-7.9,5.5c-4.8,3.7-9.1,5.5-12.7,5.5c-3.6,0-5.4-1.9-5.4-5.7
		c0-3.8,2.6-9,7.7-15.4c5.1-6.5,12-12.4,20.6-17.7c8.6-5.3,17-8,25.2-8c1.9,0,3.5,0.5,4.8,1.4c1.3,1,1.9,2.4,1.9,4.4s-2,4.9-5.9,8.9
		C446.1,147.9,442.8,149.9,439.9,149.9z"/>
	<path class="st0" d="M525.4,140.5c1-0.7,1.8-1,2.7-1s1.2,0.5,1.2,1.4v0.4c-10.2,8.2-20.3,15.9-30.3,23c-10,7.2-17.3,10.7-21.9,10.7
		c-3.4,0-5.1-1.8-5.1-5.5c0-3.7,1.6-7.4,4.9-11.1c3.3-3.7,6.5-6.9,9.7-9.6c3.2-2.7,4.8-4.5,4.8-5.4s-0.5-1.9-1.5-3.1
		s-1.9-1.9-2.6-2.4c-2.3,2.3-7.4,6.6-15.1,12.7l-0.8-3.1c8.6-6.8,13.6-11.4,14.9-13.7v-1.8c0-3.4,0.3-5.7,1-7
		c0.7-1.2,2.3-2.9,4.9-5.1c2.6-2.2,4.4-3.3,5.3-3.3c1,0,1.8,0.3,2.6,1s1.1,1.4,1.1,2.1s-0.2,1.5-0.7,2.3c-0.5,0.9-1,1.6-1.4,2.2
		c-0.5,0.6-1.1,1.4-1.9,2.2c-0.8,0.9-1.3,1.5-1.5,1.8c-0.2,0.3-0.4,0.9-0.6,1.7c-0.2,0.8-0.6,1.5-1.3,2.1s-1,1.2-1,2.1
		s0.5,2.6,1.6,5.4c1.1,2.8,1.6,4.8,1.6,6.1s-2.5,4.4-7.6,9.2c-5,4.8-7.6,8.8-7.6,11.8c0,1.6,0.8,2.5,2.2,2.5c1.9,0,5.5-1.7,10.6-5.1
		l2.5-1.6c8.9-6.1,17.2-12.4,25-18.6L525.4,140.5z"/>
	<path class="st0" d="M585.8,141.3c-28.4,22.9-45.6,34.4-51.6,34.4c-2.3,0-3.5-1.4-3.5-4.1s1-7.3,3.1-13.7c0-0.1-0.1-0.2-0.4-0.2
		c-15.7,13-26.1,19.4-31.3,19.4c-3.5,0-5.3-1.3-5.3-3.9c0-5.7,6.2-14.1,18.5-25.2c12.3-11.1,22.2-16.6,29.6-16.6c1,0,2,0.7,3.1,2.1
		c3.1-4.6,20.7-29.8,52.8-75.5c3.4-4.2,6.2-6.3,8.3-6.3c2.1,0,3.2,0.7,3.2,2c0,3.4-11.7,19.5-35.2,48.3c-8.7,10.9-16.8,22.3-24,34.1
		c-7.3,11.8-11,20.8-11,26.9c0,2.6,0.8,3.9,2.2,3.9c1.8,0,4.9-1.6,9.4-4.7c9.3-6.7,17.4-12.8,24.3-18.4l3.9-3.3c1-0.7,1.8-1,2.7-1
		s1.2,0.5,1.2,1.4L585.8,141.3L585.8,141.3z M540.2,145.2l6.5-10c-0.4-0.1-0.8-0.2-1.2-0.2c-5.7,0-13.2,4.4-22.5,13.1
		c-9.3,8.7-13.9,14.9-13.9,18.4c0,1,0.5,1.4,1.6,1.4c3.4,0,8.6-2.9,15.6-8.7C533.2,153.4,537.8,148.7,540.2,145.2z"/>
	<path class="st0" d="M666.4,154.2c-3.3-4.4-7.5-10.4-12.7-18.2c-35.9-3.6-53.8-11.1-53.8-22.5c0-2.6,1.3-4.7,4-6.3
		c2.7-1.6,6.7-2.5,12.2-2.5c13.6,0,27.2,8.7,40.7,26c13.6,1.4,29.1,2.1,46.5,2.1h2.2c17.5-10.5,33.7-21.1,48.7-31.7
		c6.1-11.2,11.5-20.4,16-27.7c4.5-7.3,10-14.9,16.4-22.8c12.7-16.1,26.1-24.1,40.1-24.1c3.7,0,5.5,1.6,5.5,4.9
		c0,7.9-6.5,18.3-19.7,31.1c-13.1,12.8-30.5,26.6-52.2,41.3c-6.5,12.6-11.5,21.7-14.7,27.4c19.1-1.5,32.9-3.8,41.3-7h0.6
		c0.5,0,0.8,0.4,0.8,1.1s-0.5,1.8-1.4,3.2c-10.2,3.1-25,5.6-44.2,7.4c-7.4,12.7-14.5,22.6-21.4,29.6c-6.9,7-13.8,10.5-20.8,10.5
		c-11.2,0-21.8-6.2-31.7-18.6c-19.5,9.8-36.8,17.3-51.8,22.5c-2,0.7-4.4,1-7.1,1s-4-1-4-3.1c0-1.1,0.5-2.1,1.6-3
		c1.1-0.9,2.5-1.3,4.3-1.3C622.9,173.4,641,167,666.4,154.2z M609.7,112.6c0,7.8,13.2,13.4,39.5,17c-10.6-14.2-21.3-21.3-32.1-21.3
		C612.2,108.3,609.7,109.8,609.7,112.6z M672.4,151.3c8.5-4.5,16.6-9,24.3-13.5h-0.8c-11.9,0-23.3-0.4-34.4-1.2
		C666.7,143.8,670.3,148.7,672.4,151.3z M705.5,137.8c-10.4,5.9-20.6,11.4-30.7,16.6c9.1,11.3,17.5,17,25,17c5.6,0,11.2-3,16.7-9
		c5.5-6,11.6-14.7,18.3-26C726.5,137.1,716.7,137.5,705.5,137.8z M748.7,111.4c-7.4,4.9-18.8,12-34.4,21.3c10.5-0.3,18.2-0.6,23.1-1
		C740,127.2,743.8,120.4,748.7,111.4z M820.9,31.2c-9.4,0-18.9,6.3-28.5,18.8c-7.9,10.6-16.6,24.7-26,42.2
		c17.2-12.7,31-24.2,41.3-34.7C818.2,47,823.4,39,823.4,33.2C823.4,31.9,822.6,31.2,820.9,31.2z"/>
	<path class="st0" d="M823.6,140.3c1.1-0.7,1.9-1,2.6-1c0.6,0,0.9,0.4,0.9,1.2v0.6c0.5,0-3.1,3-11,9c-7.8,6-16.2,12-25.2,18
		c-8.9,6-14.6,9-16.9,9c-4,0-5.9-1.6-5.9-4.9c0-4,3.4-11.4,10.2-22.4s11.8-16.5,14.9-16.5c2.3,0,3.5,0.9,3.5,2.7
		c0,1.8-3.1,6.6-9.4,14.5c-6.3,7.9-9.4,13.6-9.4,17c0,1.9,0.7,2.9,2.2,2.9c1.4,0,5-1.9,10.7-5.7c10.2-6.8,19.7-13.7,28.2-20.7
		L823.6,140.3z M806.7,112.6c1.3,0,2.3,0.4,3.1,1.2s1.1,2,1.1,3.5s-1,3.4-3.1,5.7s-3.8,3.5-5.3,3.5s-2.6-0.4-3.3-1.3s-1-1.9-1-3.1
		c0-1.2,1.1-3,3.3-5.6C803.7,113.9,805.4,112.6,806.7,112.6z"/>
	<path class="st0" d="M906.3,141.1c-28.8,24-46.6,36-53.4,36c-4,0-5.9-1.6-5.9-4.9s1.5-7.2,4.4-11.7c2.9-4.5,5.9-8.5,8.8-12
		s4.4-5.6,4.4-6.2c0-0.7-0.2-1-0.6-1c-12.7,8.5-20.2,13.6-22.6,15.6c-2.4,1.9-6.3,5.1-11.7,9.4c-5.4,4.4-8.9,7.1-10.5,8.2
		c-1.6,1.1-3.4,1.6-5.3,1.6c-1.9,0-2.9-0.8-2.9-2.5c0-1.9,3.8-7.9,11.5-18c7.4-10.1,11-15.8,11-17c0-0.3-0.2-0.4-0.7-0.4
		s-6.4,4.2-17.7,12.5l-0.8-3.1c9.7-7.8,16.2-12.8,19.7-14.9c3.4-2.2,6.2-3.3,8.3-3.3c2.1,0,3.2,1,3.2,3.1c0,1.4-3.9,6.9-11.6,16.7
		c-7.7,9.8-11.6,15-11.6,15.8s0.2,1.1,0.7,1.1s8.2-5.5,23.3-16.5c15.1-11,24.2-16.5,27.5-16.5c1,0,1.9,0.4,2.8,1.1s1.3,1.5,1.3,2.1
		c0,1.6-3.6,7.1-10.8,16.3s-10.8,14.4-10.8,15.7s0.8,1.8,2.6,1.8c1.7,0,5.3-1.8,11-5.5c10.2-6.7,19.7-13.6,28.2-20.7l4.5-3.7
		c1-0.7,1.8-1,2.7-1c0.8,0,1.2,0.4,1.2,1.2L906.3,141.1L906.3,141.1z"/>
	<path class="st0" d="M963,140.5c1-0.7,1.8-1,2.7-1c0.8,0,1.2,0.5,1.2,1.4v0.4c-13.2,10.9-23.6,18.8-31.1,23.7l-40.9,26.6
		l-12.7,17.8c-19.7,26.9-29.5,41.3-29.5,43.4c-2.2,4.8-4.3,7.2-6.3,7.2c-2.6,0-3.9-1.7-3.9-5.1s1.7-8,5-13.7
		c3.3-5.7,6.7-10.4,9.9-13.9l19.4-20.5c1.6-2.6,5-7.4,10-14.3c5-7,8.4-11.6,10-13.9l8.8-13.1l0.4-0.8c0-0.3-0.1-0.4-0.4-0.4
		c-8,6.7-14.7,10-20.1,10s-8-1.5-8-4.6s2-7.1,6.1-12.2s9-10,14.8-14.7c5.8-4.8,12.2-8.9,19.2-12.4c7-3.5,13.2-5.2,18.6-5.2
		c5.4,0,8.1,1.9,8.1,5.7c0,2.7-2.6,6-7.7,9.8c-5.1,3.8-8.3,5.7-9.4,5.7c-1.2,0-1.7-0.3-1.7-0.8c0-0.8,0.5-1.6,1.6-2.2
		c4.6-3.3,7-6.4,7-9.3s-1.2-4.4-3.7-4.4c-6,0-14.4,5.1-25.1,15.2s-16.1,17.4-16.1,21.6c0,1.2,1,1.8,3,1.8c2,0,5.3-1.6,10.1-4.8
		c4.8-3.2,8.4-6.3,10.8-9.3l5.5-7c0.7-0.9,1.6-1.4,2.7-1.4c1.1,0,2,0.3,2.9,1c0.8,0.7,1.2,1.4,1.2,2.1L901,183.2l30.3-19
		c9-5.4,18-12,27-19.6L963,140.5z"/>
	<path class="st0" d="M1012.3,140.5c1-0.7,1.8-1,2.7-1c0.8,0,1.2,0.5,1.2,1.4v0.4c-14.2,11.7-25,19.9-32.3,24.6
		c-9.5,7.2-17.6,10.9-24.2,10.9c-5.7,0-8.6-3.4-8.6-10.2c0-9.1,5.9-22.7,17.7-40.6s25.1-34.1,39.8-48.4
		c14.7-14.3,25.9-21.5,33.4-21.5c3.4,0,5.1,1.5,5.1,4.5c0,7.5-9,19.9-26.9,37.1c-17.9,17.3-35.6,32-52.9,44.1
		c-5,9.7-7.6,17.1-7.6,22.1c0,5.1,1.8,7.6,5.3,7.6c3.5,0,8.2-2.1,13.9-6.1c9.7-5.7,19.1-12.6,28.2-20.5L1012.3,140.5z M1036.8,62.5
		c-5.7,0-15.9,8.3-30.5,24.8c-14.6,16.5-26.7,33-36.2,49.5c15.7-11.2,31-24.9,46-41c15-16.2,22.5-26.6,22.5-31.4
		C1038.7,63.1,1038.1,62.5,1036.8,62.5z"/>
	<path class="st0" d="M1065.1,140.5c0.9-0.7,1.8-1,2.7-1c0.8,0,1.2,0.5,1.2,1.4v0.4c-14.2,11.7-26,20.5-35.4,26.4
		c-9.4,5.9-17.9,8.8-25.6,8.8c-6.1,0-9.2-3-9.2-9c0-8.9,4.5-18,13.5-27.3c9-9.3,16.6-14,22.7-14c3.4,0,5.1,1.9,5.1,5.7
		c-0.7,7.5-11.5,17.6-32.3,30.3v2.1c0,4.5,2.3,6.8,7.1,6.8s9.8-1.6,15.2-4.7c10.6-6.3,20.6-13.4,29.9-21.5L1065.1,140.5z
		 M1029.7,132.5c-3,0-6.9,2.5-11.6,7.6c-4.7,5.1-7.9,10.8-9.5,17.2c6.5-4,12.1-8.1,16.6-12.6c4.5-4.4,6.8-7.6,6.8-9.4
		C1031.9,133.4,1031.2,132.5,1029.7,132.5z"/>
	<path class="st0" d="M1175.6,87.7l-29.3-1.4c-12,0-23.9,0.5-35.8,1.4l1,4.1c0,1.5-4.4,7.2-13.3,17.1c-8.9,9.9-17.7,20.7-26.6,32.3
		s-13.3,20.3-13.3,25.9c0,2.2,0.8,3.3,2.3,3.3s5.2-1.9,10.7-5.7c10.4-6.8,19.8-13.7,28.4-20.7l4.5-3.7c0.9-0.7,1.8-1,2.4-1
		c0.7,0,1,0.4,1,1.2v0.6c0.5,0-3.1,3-10.9,9c-7.8,6-16.2,12-25.2,18c-8.9,6-14.6,9-16.9,9c-4,0-5.9-1.8-5.9-5.3
		c0-5.2,2.9-12.4,8.7-21.5c5.8-9.1,12.1-17.8,19-25.9s13.4-15.8,19.7-23c6.2-7.2,9.6-11.7,10.1-13.3c-15,1.4-26.5,3-34.6,4.9
		l-4.1,0.8c-1.1,0.1-1.6,1.2-1.6,3.1c0,0.8-1,1.2-2.9,1.2c-1.9,0-4.3-0.4-7.1-1.3c-2.8-0.9-4.2-2.2-4.2-3.8s1.4-2.7,4.1-3.3
		c20.2-3.6,34.5-5.7,43-6.4s14.1-1.2,16.9-1.4c2.8-0.2,7.2-0.4,13.1-0.5c5.9-0.1,9.9-0.2,12-0.2c6.1-0.3,13.3-0.4,21.6-0.4
		c8.2,0,13.3,0.3,15,1s2.7,2,2.7,3.9C1180.3,87,1178.7,87.7,1175.6,87.7z"/>
	<path class="st0" d="M1119.7,156.8c7.6,0,16.8-4.3,27.4-12.9l3.5,1c-13.4,11.2-24.9,16.8-34.6,16.8c-1.1,0-1.9-0.1-2.5-0.2
		c-3.7,4.5-7.7,8.1-12.1,10.9c-4.4,2.8-8.2,4.2-11.5,4.2c-5.2,0-7.8-2.9-7.8-8.7s4.8-13.5,14.5-23.2c-1.6-4-2.5-8.1-2.5-12.5
		c0-4.4,1.6-7.9,4.7-10.6c3.1-2.7,6.8-4.1,10.9-4.1c4.2,0,7.7,1.4,10.5,4.1c2.9,2.7,4.3,6.6,4.3,11.7c0,7.8-2.5,15.6-7.6,23.3
		C1117.8,156.8,1118.6,156.8,1119.7,156.8z M1090.7,166.9c0,2.7,1.8,4.1,5.3,4.1s8.1-3.6,13.5-10.9c-3.7-1.9-7-5.2-9.8-10
		C1093.7,156.6,1090.7,162.2,1090.7,166.9z M1113.2,154.8c4.2-7.1,6.3-13.1,6.3-18.1s-1.2-8.7-3.7-11.1c-2.4-2.4-4.8-3.6-7.2-3.6
		c-4.8,0-7.2,2.5-7.2,7.4c0,4.9,1.1,9.8,3.3,14.6C1107,148.9,1109.8,152.5,1113.2,154.8z"/>
	<path class="st0" d="M1234.3,141.1c-28.8,24-46.6,36-53.4,36c-4,0-5.9-1.6-5.9-4.9s1.5-7.2,4.4-11.7c2.9-4.5,5.9-8.5,8.8-12
		c2.9-3.5,4.4-5.6,4.4-6.2c0-0.7-0.2-1-0.6-1c-12.7,8.5-20.2,13.6-22.6,15.6c-2.4,1.9-6.3,5.1-11.7,9.4c-5.4,4.4-8.9,7.1-10.5,8.2
		s-3.4,1.6-5.3,1.6c-1.9,0-2.9-0.8-2.9-2.5c0-1.9,3.8-7.9,11.5-18c7.4-10.1,11.1-15.8,11.1-17c0-0.3-0.2-0.4-0.7-0.4
		s-6.4,4.2-17.7,12.5l-0.8-3.1c9.7-7.8,16.2-12.8,19.7-14.9c3.4-2.2,6.2-3.3,8.3-3.3c2.1,0,3.2,1,3.2,3.1c0,1.4-3.9,6.9-11.6,16.7
		c-7.7,9.8-11.6,15-11.6,15.8s0.2,1.1,0.7,1.1s8.2-5.5,23.3-16.5c15.1-11,24.2-16.5,27.5-16.5c0.9,0,1.9,0.4,2.8,1.1
		s1.3,1.5,1.3,2.1c0,1.6-3.6,7.1-10.8,16.3s-10.8,14.4-10.8,15.7s0.8,1.8,2.6,1.8c1.7,0,5.3-1.8,10.9-5.5
		c10.2-6.7,19.7-13.6,28.2-20.7l4.5-3.7c0.9-0.7,1.8-1,2.7-1c0.8,0,1.2,0.4,1.2,1.2L1234.3,141.1L1234.3,141.1z"/>
</g>
</svg>
