<?xml version="1.0" encoding="utf-8"?>
<!-- Generator: Adobe Illustrator 27.2.0, SVG Export Plug-In . SVG Version: 6.00 Build 0)  -->
<svg version="1.1" id="Layer_1" xmlns="http://www.w3.org/2000/svg" xmlns:xlink="http://www.w3.org/1999/xlink" x="0px" y="0px"
	 viewBox="0 0 400 100" style="enable-background:new 0 0 400 100;" xml:space="preserve">
<style type="text/css">
	.st0{opacity:0.88;}
	.st1{fill:#FFFFFF;}
</style>
<g class="st0">
	<path class="st1" d="M5.6,90.9c-0.5,0-1-0.2-1.4-0.5c-0.3-0.3-0.4-0.7-0.4-1.2c0.4-6.9,6.5-11,11.9-14.7c0.7-0.5,1.4-0.9,2-1.4
		l24.7-17.3l-27.7,8c-0.2,0.1-0.4,0.1-0.5,0.1c-0.9,0-1.5-0.7-1.7-1.5c-0.2-0.7-0.1-1.6,0.8-2.1c28.7-16.5,58.5-32,88.5-46
		c0.3-0.2,0.7-0.2,1-0.2c0.9,0,1.6,0.7,1.8,1.4c0.3,0.8-0.1,1.6-0.8,2.2L63.4,45.8l20.7-6c0.2,0,0.3-0.1,0.5-0.1
		c0.7,0,1.3,0.4,1.6,1c0.3,0.6,0.3,1.3,0,1.8l-1.5,2.6l1.1,0c25.2-0.1,50.4-0.1,75.6-0.2c47.2-0.1,95.1-0.1,142.4-0.1
		c46.9,0,94.9,0,142.4,0.1c1.3,0,1.8,1,1.8,1.9c0,0.9-0.6,1.9-1.8,1.9h0c-26.7,0-53.3-0.1-80-0.1c-20.7,0-41.5,0-62.2,0
		c-26.7,0-53.5,0-80.2,0c-47.1,0-95,0.1-142.4,0.3c-0.7,0-1.3-0.4-1.6-1c-0.3-0.6-0.3-1.3,0-1.9l0.8-1.3l-26.7,7.7L21.4,75.2
		c-0.8,0.6-1.7,1.1-2.5,1.7c-2.1,1.4-4.3,2.9-6.3,4.6c-2.3,1.9-4.7,4.3-4.9,7.6C7.6,90.3,6.5,90.9,5.6,90.9z M75.5,31.3
		c-14,7-28,14.3-41.6,21.8l-4.7,2.6l22.9-6.6l24-16.8L75.5,31.3z"/>
</g>
</svg>
