<?xml version="1.0" encoding="utf-8"?>
<!-- Generator: Adobe Illustrator 27.2.0, SVG Export Plug-In . SVG Version: 6.00 Build 0)  -->
<svg version="1.1" baseProfile="tiny" id="Layer_1" xmlns="http://www.w3.org/2000/svg" xmlns:xlink="http://www.w3.org/1999/xlink"
	 x="0px" y="0px" viewBox="0 0 400 100" overflow="visible" xml:space="preserve">
<path fill="#FFFFFF" d="M420.9,51.8c-53.3-0.9-106.6-1-159.9-0.4c-53.3,0.6-106.6,2-159.9,4.2c-23.6,1-47.2,2.1-70.7,3.3
	c5.1-8,9.3-16.6,12.4-25.6c0.7-2.1-1.9-3.9-3.7-2.8c-12.5,7.3-22.9,18-29.9,30.7c-0.9,1.6,0.2,3.9,2.2,3.8c3-0.2,6-0.3,9-0.5
	c-4.4,5.7-9.3,11-14.8,15.7c-2.4,2.1,1.1,5.7,3.5,3.5c6.7-5.9,12.6-12.5,17.7-19.6c48.1-2.6,96.2-4.6,144.3-5.9
	c53.3-1.5,106.6-2.2,159.9-2.2c30,0,59.9,0.3,89.9,0.8C424.1,56.8,424.1,51.8,420.9,51.8z M15.9,59.7c5.1-8.1,11.7-15.1,19.4-20.7
	c-3,7.1-6.7,13.9-11.1,20.3C21.4,59.4,18.6,59.5,15.9,59.7z"/>
</svg>
