<?xml version="1.0" encoding="utf-8"?>
<!-- Generator: Adobe Illustrator 27.2.0, SVG Export Plug-In . SVG Version: 6.00 Build 0)  -->
<svg version="1.1" id="Layer_1" xmlns="http://www.w3.org/2000/svg" xmlns:xlink="http://www.w3.org/1999/xlink" x="0px" y="0px"
	 viewBox="0 0 400 100" style="enable-background:new 0 0 400 100;" xml:space="preserve">
<style type="text/css">
	.st0{opacity:0.88;}
	.st1{fill:#FFFFFF;}
</style>
<g class="st0">
	<path class="st1" d="M10.7,81.2c-0.8,0-1.6-0.6-2-1.4c-0.2-0.4-0.3-1.2,0.4-2c11.7-12.4,24.2-24.4,37.1-35.7
		c4.3-4.1,8.7-7.9,13.3-11.3c0.4-0.3,0.9-0.5,1.4-0.5c1,0,2,0.6,2.2,1.4c0.2,0.6,0,1.2-0.6,1.6c-4.5,3.7-9,7.5-13.4,11.4
		c-3.6,3.5-7,7.1-10.1,10.9l-1.3,1.6l6.4-2c8.8-2.8,17.9-5.6,26.9-8.2c6.9-2,12.5-3,17.8-3c0.5,0,1,0,1.5,0c5.1,0.2,10.2,1,15.2,1.9
		c1.3,0.2,2.7,0.4,4,0.7c20.1,3.2,40.8,3.5,62,3.5l10.9,0l12.6,0c20.3,0,41,0,61.4-0.1c49.3-0.2,99.4-0.5,148.9-1c1.4,0,2,0.9,2,1.9
		c0,1-0.6,1.9-2,1.9c-27.9,0.3-55.9,0.5-83.1,0.7c-42.1,0.3-84.8,0.4-126.7,0.4c-7,0-14,0-21,0c-11.3,0-24,0-36.4-0.6
		c-11.4-0.6-23.1-1.9-35.8-4c-4.2-0.7-9-1.4-13.9-1.4c-1.2,0-2.3,0-3.4,0.1c-5.6,0.4-11.1,2.1-16.4,3.7l-35.7,11
		C32.9,63,32.7,63,32.5,63c-0.5,0-1.1-0.2-1.5-0.6l-0.4-0.4l-0.4,0.4C24,68.3,17.9,74.4,12.1,80.6C11.7,81,11.2,81.2,10.7,81.2z"/>
</g>
</svg>
