<?xml version="1.0" encoding="utf-8"?>
<!-- Generator: Adobe Illustrator 27.2.0, SVG Export Plug-In . SVG Version: 6.00 Build 0)  -->
<svg version="1.1" id="Layer_1" xmlns="http://www.w3.org/2000/svg" xmlns:xlink="http://www.w3.org/1999/xlink" x="0px" y="0px"
	 viewBox="0 0 400 100" style="enable-background:new 0 0 400 100;" xml:space="preserve">
<style type="text/css">
	.st0{opacity:0.88;}
	.st1{fill:#FFFFFF;}
</style>
<g class="st0">
	<path class="st1" d="M9.6,94.3c-0.7,0-1.4-0.5-1.7-1.3c-0.2-0.4-0.4-1.3,0.3-2.1c5.8-6.7,12.9-12,20.9-17.7
		c3.8-2.7,7.7-5.5,11.6-8.5l0.9-0.7l-1.3-0.5c-0.3-0.1-0.5-0.2-0.8-0.3c-0.7-0.3-1.3-1-1.4-1.7c-0.1-0.4,0-1,0.5-1.5
		C59.7,40,82.8,21.7,107.4,5.8c0.3-0.2,0.6-0.3,0.9-0.3c0.7,0,1.3,0.5,1.7,1.2c0.3,0.7,0.2,1.5-0.3,2.1C103,15.9,96,22.9,89,29.4
		c-11.3,10.7-23.5,21.1-36.2,31l-1.7,1.4l2.2-0.3c0.1,0,0.2,0,0.3,0c0.8,0,1.5,0.4,2.1,1.3c0.1,0.2,0.2,0.4,0.3,0.6l0.1,0.5
		l355.2-0.9c1.3,0,1.8,0.9,1.8,1.9c0,0.9-0.6,1.9-1.8,1.9l-352,0.9c-0.5,0-1,0-1.5,0c-0.6,0-1.1,0-1.7,0c-1.2,0-2.7-0.1-3.8-0.8
		c-0.4-0.3-0.8-0.6-1-0.9l-0.2-0.3l-0.3,0c-1.3,0-2.7-0.1-3.9-0.3l-0.2,0l-0.2,0.1c-5.8,4.3-11.7,8.6-16.7,12.2
		c-6.1,4.3-13.1,9.5-18.7,16.1C10.4,94.1,10,94.3,9.6,94.3z M86.6,24.8C71.8,35.7,57.6,47.5,44.3,60.1l-0.8,0.8c0,0,1.5,0.4,1.7,0.4
		l0.3,0.1l0.2-0.2C60.3,50,74.3,38.1,87.3,25.7L86.6,24.8z"/>
</g>
</svg>
