<?xml version="1.0" encoding="utf-8"?>
<!-- Generator: Adobe Illustrator 27.2.0, SVG Export Plug-In . SVG Version: 6.00 Build 0)  -->
<svg version="1.1" baseProfile="tiny" id="Layer_1" xmlns="http://www.w3.org/2000/svg" xmlns:xlink="http://www.w3.org/1999/xlink"
	 x="0px" y="0px" viewBox="0 0 400 100" overflow="visible" xml:space="preserve">
<path fill="#FFFFFF" d="M407.5,57.6c-45.3-0.1-90.5-0.2-135.8-0.3c-45.1-0.1-90.2-0.2-135.4-0.3c-12.6,0-25.3-0.1-37.9-0.1
	c-6.3,0-12.6,0-18.9,0c-3.2,0-6.3,0-9.5,0c-1.6,0-3.2,0-4.7,0c-0.2,0-0.4,0-0.6,0c-0.2-0.6-0.7-1.2-1.6-1.5
	c-1.6-0.6-3.5-0.1-4.4,1.2C53.5,58,48,58.9,42.6,59.3c4.5-4.7,9.1-9.4,13.6-14.2c2-2.1-0.5-5.3-3.2-3.9
	c-10.2,5.2-19.7,11.3-28.7,18.2c-1.4,1.1-0.7,3.9,1.2,4.2c1.8,0.2,3.6,0.4,5.4,0.6C24.2,71,17.6,77.8,10.9,84.6
	c-2.3,2.4,1.4,5.9,3.7,3.5c7.7-7.9,15.4-15.8,23-23.7c7.7,0,15.5-0.9,22.8-3.2c0.6,0.3,1.3,0.5,2,0.5c3.1,0.3,6.4,0.1,9.6,0.1
	c27.1,0.1,54.2,0.1,81.3,0.2c27.1,0.1,54.2,0.1,81.3,0.2c27.1,0.1,54.2,0.1,81.3,0.2c27.1,0.1,54.2,0.1,81.3,0.2c3.4,0,6.8,0,10.3,0
	C410.8,62.6,410.8,57.6,407.5,57.6z M32.8,59.4c2.4-1.7,4.8-3.3,7.3-4.9c-1.6,1.7-3.2,3.4-4.8,5C34.5,59.5,33.7,59.4,32.8,59.4z"/>
</svg>
