<?xml version="1.0" encoding="utf-8"?>
<!-- Generator: Adobe Illustrator 27.2.0, SVG Export Plug-In . SVG Version: 6.00 Build 0)  -->
<svg version="1.1" id="Layer_1" xmlns="http://www.w3.org/2000/svg" xmlns:xlink="http://www.w3.org/1999/xlink" x="0px" y="0px"
	 viewBox="0 0 432 162" style="enable-background:new 0 0 432 162;" xml:space="preserve">
<style type="text/css">
	.st0{fill:#FFFFFF;}
</style>
<g>
	<g>
		<path class="st0" d="M65.7,136.4c26.5-11.2,52.5-23.5,77.9-37c12-6.4,23.8-13,35.4-20c11.6-7,23.2-14.2,33.8-22.5
			c10-7.9,20-17.3,25.1-29.2c0.4-1-0.1-2.2-1.3-2.3c-12.8-0.5-25.5,2-37.8,5.4c-12.4,3.4-24.7,7.4-36.9,11.6
			c-23.3,8-46.2,17.3-68.3,28.1C83.2,75.5,73,80.8,63,86.6c-4.9,2.8-10.1,5.6-14.4,9.2c-3.3,2.7-7.1,7.2-4.5,11.7
			c2.5,4.1,8.1,5.5,12.4,6.5c6,1.3,12.3,1.9,18.4,2.5c13.1,1.3,26.3,2.1,39.5,2.3c26.2,0.5,52.5-1.1,78.5-4.9
			c3.1-0.5,6.2-0.9,9.3-1.5c1.7-0.3,1.2-2.9-0.4-2.9c-5.3-0.2-12.6,0.8-16.1,5.3c-0.8,1-0.4,2.6,1.1,2.6c26,0.1,52.1,0.2,78.1,0.2
			s52.1,0.1,78.1,0c14.7,0,29.4,0,44.2-0.1c1.9,0,1.9-3,0-3c-26,0.1-52.1,0.1-78.1,0.1s-52.1,0-78.1-0.1c-14.7,0-29.4-0.1-44.2-0.2
			c0.4,0.9,0.7,1.7,1.1,2.6c3-3.9,9.4-4.5,13.9-4.4c-0.1-1-0.3-2-0.4-2.9c-24.9,4.2-50.1,6.2-75.3,6.3c-12.7,0.1-25.4-0.4-38.1-1.3
			c-6.3-0.5-12.5-1-18.8-1.8c-5.6-0.6-11.4-1.2-16.8-3.1c-2-0.7-4.3-1.7-5.6-3.5c-1.3-1.9-0.2-4,1.1-5.6c3.7-4.3,9.1-7.1,13.9-9.9
			c9.4-5.5,19-10.6,28.8-15.5c21.1-10.5,43-19.6,65.2-27.5c11.8-4.2,23.6-8.1,35.6-11.6c11.7-3.5,23.6-6.7,35.8-7.5
			c3.1-0.2,6.2-0.2,9.3-0.1c-0.4-0.8-0.9-1.5-1.3-2.3c-4.5,10.4-12.7,18.8-21.3,25.9c-10.4,8.7-21.9,16-33.5,22.9
			c-23.4,14.1-47.4,27-72,38.8c-14.6,7-29.4,13.7-44.3,20C62.4,134.6,64,137.2,65.7,136.4L65.7,136.4z"/>
	</g>
</g>
</svg>
