<?xml version="1.0" encoding="utf-8"?>
<!-- Generator: Adobe Illustrator 27.2.0, SVG Export Plug-In . SVG Version: 6.00 Build 0)  -->
<svg version="1.1" baseProfile="tiny" id="Layer_1" xmlns="http://www.w3.org/2000/svg" xmlns:xlink="http://www.w3.org/1999/xlink"
	 x="0px" y="0px" viewBox="0 0 400 100" overflow="visible" xml:space="preserve">
<path fill="#FFFFFF" d="M455.1,53.9c-55.7,0.1-111.3,0.1-167,0.2c-55.4,0.1-110.7,0.1-166.1,0.2c-15.6,0-31.1,0-46.7,0
	c-7.8,0-15.6,0-23.3,0c-3.9,0-7.8,0-11.7,0c-1.6,0-3.3,0.2-4.9,0c-0.5-0.1-1-0.3-1.4-0.5c-0.1-0.1-0.2-0.1-0.3-0.2
	c0.9-1.5-0.5-3.7-2.2-3.7c-0.4,0-0.9,0-1.3,0c3.1-6.3,5.9-12.8,8.2-19.4c0.8-2.3-2.5-4.3-4.2-2.4c-6.3,7-12.5,14-18.8,21
	c-1.2,1.3-0.8,3.7,1.1,4.2c1.9,0.5,3.8,0.8,5.7,1.1C17,63.7,10.8,72.7,3.8,81.1c-2.1,2.4,1.5,6,3.5,3.5c7.8-9.3,14.6-19.3,20.3-29.9
	c0.3,0,0.6,0,0.9,0c1,2.3,4.3,4.2,6.5,4.4c3.2,0.4,6.6,0.1,9.8,0.1c3.7,0,7.5,0,11.2,0c14.5,0,29,0,43.5,0c28.7,0,57.5-0.1,86.2-0.1
	c57.5-0.1,114.9-0.1,172.4-0.2c32.3,0,64.6-0.1,97-0.1C458.3,58.9,458.3,53.9,455.1,53.9z M21.9,49c2.1-2.4,4.3-4.8,6.4-7.2
	c-1.1,2.6-2.4,5.1-3.6,7.6C23.8,49.3,22.9,49.2,21.9,49z"/>
</svg>
